<svg width="1440" height="900" viewBox="0 0 1440 900" fill="none" xmlns="http://www.w3.org/2000/svg">
  <defs>
    <linearGradient id="bg" x1="210" y1="80" x2="1170" y2="760" gradientUnits="userSpaceOnUse">
      <stop stop-color="#09111F"/>
      <stop offset="0.58" stop-color="#10233E"/>
      <stop offset="1" stop-color="#164E86"/>
    </linearGradient>
    <linearGradient id="car" x1="535" y1="332" x2="1006" y2="617" gradientUnits="userSpaceOnUse">
      <stop stop-color="#DDEAF6"/>
      <stop offset="1" stop-color="#8DB7DA"/>
    </linearGradient>
    <linearGradient id="glass" x1="681" y1="334" x2="909" y2="471" gradientUnits="userSpaceOnUse">
      <stop stop-color="#8DE0FF" stop-opacity="0.95"/>
      <stop offset="1" stop-color="#2D79B9" stop-opacity="0.55"/>
    </linearGradient>
    <linearGradient id="floor" x1="377" y1="676" x2="1134" y2="676" gradientUnits="userSpaceOnUse">
      <stop stop-color="#00A8E8" stop-opacity="0"/>
      <stop offset="0.5" stop-color="#7FDBFF" stop-opacity="0.75"/>
      <stop offset="1" stop-color="#00A8E8" stop-opacity="0"/>
    </linearGradient>
  </defs>
  <rect width="1440" height="900" fill="url(#bg)"/>
  <circle cx="1070" cy="210" r="142" fill="#1E6FB0" fill-opacity="0.18"/>
  <circle cx="1148" cy="162" r="286" fill="#5FCBFF" fill-opacity="0.08"/>
  <circle cx="314" cy="674" r="240" fill="#5FCBFF" fill-opacity="0.08"/>
  <path d="M377 676H1134" stroke="url(#floor)" stroke-width="4" stroke-linecap="round"/>
  <ellipse cx="772" cy="696" rx="302" ry="36" fill="#08111E" fill-opacity="0.62"/>
  <path d="M470 612C487 603 512 597 545 594L611 507C637 470 672 445 717 431L864 382C903 369 943 373 983 388L1107 436C1144 450 1174 477 1198 516L1263 619C1274 635 1263 656 1242 656H1168C1149 656 1131 666 1123 683C1108 714 1077 734 1041 734H976C944 734 915 712 901 684L894 670H650L642 684C628 712 599 734 567 734H503C467 734 435 714 420 683C412 666 394 656 375 656H340C322 656 315 632 329 621L382 579C394 570 409 565 425 565H496L470 612Z" fill="url(#car)"/>
  <path d="M650 497C671 470 699 451 733 441L861 403C891 394 923 398 954 412L1052 458C1065 464 1063 483 1048 486L650 523C642 524 645 504 650 497Z" fill="url(#glass)"/>
  <path d="M1111 444L1195 504C1210 515 1222 531 1231 549L1249 584C1254 594 1246 605 1235 605H1126C1115 605 1107 595 1108 584L1111 444Z" fill="#E8F1F8" fill-opacity="0.96"/>
  <path d="M474 609L447 654H387C381 654 378 648 383 644L423 613C430 607 438 604 447 604L474 609Z" fill="#C6D7E7"/>
  <circle cx="547" cy="673" r="64" fill="#0A1220"/>
  <circle cx="547" cy="673" r="28" fill="#F3F8FC"/>
  <circle cx="1036" cy="673" r="64" fill="#0A1220"/>
  <circle cx="1036" cy="673" r="28" fill="#F3F8FC"/>
  <path d="M702 350L912 314" stroke="#7FDBFF" stroke-width="6" stroke-linecap="round" opacity="0.55"/>
  <path d="M1007 412L1116 470" stroke="#7FDBFF" stroke-width="6" stroke-linecap="round" opacity="0.45"/>
  <path d="M653 546L1167 529" stroke="#11345D" stroke-width="8" stroke-linecap="round" opacity="0.45"/>
</svg>